<svg width="256" height="256" viewBox="0 0 256 256" fill="none" xmlns="http://www.w3.org/2000/svg">
<rect width="256" height="256" fill="#FFD8B5"/>
<path d="M53.8758 157.968C57.5878 157.968 60.5638 157.008 62.8038 155.088C65.1078 153.168 66.2598 150.512 66.2598 147.12C66.2598 144.368 65.5558 142.032 64.1478 140.112C62.7398 138.192 60.9798 136.624 58.8678 135.408C56.8198 134.192 54.0038 132.784 50.4198 131.184C46.3238 129.328 43.0278 127.632 40.5318 126.096C38.0998 124.56 36.0198 122.512 34.2918 119.952C32.5638 117.392 31.6998 114.192 31.6998 110.352C31.6998 107.088 32.4678 104.048 34.0038 101.232C35.6038 98.352 37.9718 96.048 41.1078 94.32C44.2438 92.592 48.0838 91.728 52.6278 91.728C56.7878 91.728 60.4998 92.336 63.7638 93.552C67.0918 94.704 69.6518 96.368 71.4438 98.544C73.2998 100.656 74.2278 103.088 74.2278 105.84C74.2278 109.104 73.2358 111.792 71.2518 113.904C69.3318 116.016 66.8998 117.072 63.9558 117.072C62.6118 117.072 61.9398 116.688 61.9398 115.92C61.9398 115.728 62.1958 115.184 62.7078 114.288C63.2838 113.392 63.7638 112.4 64.1478 111.312C64.5958 110.16 64.8198 108.784 64.8198 107.184C64.8198 104.176 63.6998 101.744 61.4598 99.888C59.2198 98.032 56.2758 97.104 52.6278 97.104C48.8518 97.104 45.9398 98.192 43.8918 100.368C41.8438 102.48 40.8198 105.072 40.8198 108.144C40.8198 110.512 41.4918 112.56 42.8358 114.288C44.1798 116.016 45.8438 117.456 47.8278 118.608C49.8118 119.76 52.5638 121.136 56.0838 122.736C60.3078 124.592 63.7318 126.352 66.3558 128.016C69.0438 129.616 71.3158 131.792 73.1718 134.544C75.0278 137.232 75.9558 140.592 75.9558 144.624C75.9558 150.32 74.0358 154.864 70.1958 158.256C66.4198 161.648 60.9798 163.344 53.8758 163.344C49.2678 163.344 45.1718 162.704 41.5878 161.424C38.0038 160.08 35.1878 158.256 33.1398 155.952C31.1558 153.584 30.1638 150.896 30.1638 147.888C30.1638 144.624 31.1878 141.936 33.2358 139.824C35.3478 137.712 37.9718 136.656 41.1078 136.656C41.8118 136.656 42.3238 136.784 42.6438 137.04C42.9638 137.232 43.1238 137.488 43.1238 137.808C43.1238 138 42.8358 138.544 42.2598 139.44C41.6838 140.272 41.1718 141.264 40.7238 142.416C40.2758 143.568 40.0518 144.944 40.0518 146.544C40.0518 149.936 41.3318 152.688 43.8918 154.8C46.4518 156.912 49.7798 157.968 53.8758 157.968ZM102.477 149.232C102.477 151.28 102.637 152.816 102.957 153.84C103.277 154.864 103.853 155.568 104.685 155.952C105.581 156.336 106.893 156.528 108.621 156.528H116.973C119.277 156.528 121.069 156.304 122.349 155.856C123.629 155.344 124.621 154.512 125.325 153.36C126.093 152.144 126.797 150.352 127.437 147.984L128.013 145.776L131.277 146.928V163.344L129.357 164.4L128.589 163.344C127.885 162.448 126.541 162 124.557 162H86.1573L85.1013 158.928L87.1172 158.352C89.4853 157.648 91.0533 156.752 91.8213 155.664C92.5893 154.576 92.9733 152.656 92.9733 149.904V105.84C92.9733 102.896 92.5573 100.848 91.7253 99.696C90.8933 98.544 89.2613 97.616 86.8293 96.912L84.6213 96.336L85.7733 93.072H106.797L108.045 94.608L106.797 96.336C105.197 98.448 104.077 100.688 103.437 103.056C102.797 105.424 102.477 108.528 102.477 112.368V149.232ZM193.533 162L179.421 120.144L165.597 162H154.653L135.933 106.32C134.973 103.376 133.885 101.136 132.669 99.6C131.453 98.064 129.661 96.4 127.293 94.608L128.541 93.072H150.141L151.293 96.336L149.085 96.912C147.549 97.296 146.429 97.808 145.725 98.448C145.085 99.088 144.765 99.984 144.765 101.136C144.765 102.16 145.117 103.728 145.821 105.84L161.469 154.032L175.773 109.392L174.812 106.32C173.853 103.376 172.765 101.136 171.549 99.6C170.333 98.064 168.541 96.4 166.173 94.608L167.421 93.072H189.021L190.173 96.336L187.965 96.912C186.429 97.296 185.309 97.808 184.605 98.448C183.965 99.088 183.645 99.984 183.645 101.136C183.645 102.16 183.997 103.728 184.701 105.84L200.349 154.032L213.789 112.272C215.005 108.432 215.613 105.456 215.613 103.344C215.485 99.824 214.045 97.68 211.293 96.912L209.085 96.336L210.237 93.072H228.477L229.725 94.608L228.285 96.336C225.917 99.152 224.157 102.352 223.005 105.936L204.477 162H193.533Z" fill="#553B3B"/>
<path d="M128 30V62.5" stroke="#553B3B" stroke-width="3"/>
<path d="M128 193V225.5" stroke="#553B3B" stroke-width="3"/>
</svg>
